<svg width="133" height="56" viewBox="0 0 133 56" fill="none" xmlns="http://www.w3.org/2000/svg">
<rect x="101.708" y="14.2153" width="7.44615" height="7.44615" fill="#A3F777"/>
<rect x="101.707" y="37.2307" width="7.44615" height="7.44615" fill="#A3F777"/>
<rect x="113.215" y="25.723" width="7.44615" height="7.44615" fill="#A3F777"/>
<rect x="124.723" y="14.2153" width="7.44615" height="7.44615" fill="#A3F777"/>
<rect x="124.723" y="37.2307" width="7.44615" height="7.44615" fill="#A3F777"/>
<path d="M3.33588 44V13.7605H17.6325C19.0477 13.7605 20.3185 14.006 21.4449 14.497C22.5713 14.9591 23.5244 15.6089 24.3042 16.4465C25.1129 17.2841 25.7339 18.3094 26.1671 19.5225C26.6004 20.7066 26.817 22.0063 26.817 23.4215C26.817 24.8656 26.6004 26.1798 26.1671 27.3639C25.7339 28.5481 25.1129 29.559 24.3042 30.3966C23.5244 31.2341 22.5713 31.8984 21.4449 32.3894C20.3185 32.8515 19.0477 33.0826 17.6325 33.0826H9.92099V44H3.33588ZM9.92099 27.3639H16.8527C17.8347 27.3639 18.6 27.1184 19.1488 26.6274C19.7264 26.1076 20.0153 25.3566 20.0153 24.3746V22.4684C20.0153 21.4864 19.7264 20.7499 19.1488 20.259C18.6 19.7391 17.8347 19.4791 16.8527 19.4791H9.92099V27.3639ZM38.5734 44L28.8258 13.7605H35.4975L40.0031 28.2737L42.3859 37.7615H42.5158L44.812 28.2737L49.3176 13.7605H55.7727L45.9384 44H38.5734ZM59.732 44V13.7605H74.0286C75.4439 13.7605 76.7147 14.006 77.8411 14.497C78.9675 14.9591 79.9206 15.6089 80.7004 16.4465C81.5091 17.2841 82.1301 18.3094 82.5633 19.5225C82.9965 20.7066 83.2131 22.0063 83.2131 23.4215C83.2131 24.8656 82.9965 26.1798 82.5633 27.3639C82.1301 28.5481 81.5091 29.559 80.7004 30.3966C79.9206 31.2341 78.9675 31.8984 77.8411 32.3894C76.7147 32.8515 75.4439 33.0826 74.0286 33.0826H66.3171V44H59.732ZM66.3171 27.3639H73.2488C74.2308 27.3639 74.9962 27.1184 75.545 26.6274C76.1226 26.1076 76.4114 25.3566 76.4114 24.3746V22.4684C76.4114 21.4864 76.1226 20.7499 75.545 20.259C74.9962 19.7391 74.2308 19.4791 73.2488 19.4791H66.3171V27.3639Z" fill="#F6F7F9"/>
</svg>
