<svg width="89" height="43" viewBox="0 0 89 43" fill="none" xmlns="http://www.w3.org/2000/svg">
<rect width="89" height="34" rx="8" fill="#3A7CF8"/>
<path d="M20.16 22.192C19.0293 22.192 18.0587 21.952 17.248 21.472C16.4373 20.9813 15.8133 20.304 15.376 19.44C14.9387 18.5653 14.72 17.5573 14.72 16.416C14.72 15.2747 14.9387 14.2667 15.376 13.392C15.8133 12.5173 16.4373 11.8347 17.248 11.344C18.0587 10.8533 19.0293 10.608 20.16 10.608C21.504 10.608 22.6027 10.944 23.456 11.616C24.32 12.2773 24.8587 13.2107 25.072 14.416H22.816C22.6773 13.808 22.3787 13.3333 21.92 12.992C21.472 12.64 20.8747 12.464 20.128 12.464C19.0933 12.464 18.2827 12.816 17.696 13.52C17.1093 14.224 16.816 15.1893 16.816 16.416C16.816 17.6427 17.1093 18.608 17.696 19.312C18.2827 20.0053 19.0933 20.352 20.128 20.352C20.8747 20.352 21.472 20.192 21.92 19.872C22.3787 19.5413 22.6773 19.088 22.816 18.512H25.072C24.8587 19.664 24.32 20.5653 23.456 21.216C22.6027 21.8667 21.504 22.192 20.16 22.192ZM32.4529 22.192C31.3329 22.192 30.3515 21.9467 29.5089 21.456C28.6769 20.9653 28.0209 20.288 27.5409 19.424C27.0715 18.5493 26.8369 17.5413 26.8369 16.4C26.8369 15.2587 27.0715 14.256 27.5409 13.392C28.0209 12.5173 28.6769 11.8347 29.5089 11.344C30.3515 10.8533 31.3329 10.608 32.4529 10.608C33.5622 10.608 34.5382 10.8533 35.3809 11.344C36.2235 11.8347 36.8795 12.5173 37.3489 13.392C37.8182 14.256 38.0529 15.2587 38.0529 16.4C38.0529 17.5413 37.8182 18.5493 37.3489 19.424C36.8795 20.288 36.2235 20.9653 35.3809 21.456C34.5382 21.9467 33.5622 22.192 32.4529 22.192ZM32.4529 20.352C33.5195 20.352 34.3675 20 34.9969 19.296C35.6369 18.592 35.9569 17.6267 35.9569 16.4C35.9569 15.1733 35.6369 14.208 34.9969 13.504C34.3675 12.8 33.5195 12.448 32.4529 12.448C31.3862 12.448 30.5329 12.8 29.8929 13.504C29.2529 14.208 28.9329 15.1733 28.9329 16.4C28.9329 17.6267 29.2529 18.592 29.8929 19.296C30.5329 20 31.3862 20.352 32.4529 20.352ZM40.1811 22V10.8H44.3251C45.2211 10.8 45.9625 10.9493 46.5491 11.248C47.1358 11.5467 47.5731 11.9573 47.8611 12.48C48.1491 13.0027 48.2931 13.5893 48.2931 14.24C48.2931 14.8587 48.1545 15.4293 47.8771 15.952C47.5998 16.464 47.1678 16.88 46.5811 17.2C45.9945 17.5093 45.2425 17.664 44.3251 17.664H42.2291V22H40.1811ZM42.2291 16H44.1971C44.9118 16 45.4238 15.8453 45.7331 15.536C46.0531 15.216 46.2131 14.784 46.2131 14.24C46.2131 13.6853 46.0531 13.2533 45.7331 12.944C45.4238 12.624 44.9118 12.464 44.1971 12.464H42.2291V16ZM50.2199 22V10.8H52.2679V22H50.2199ZM54.7586 22V10.8H62.0706V12.448H56.8066V15.52H61.5906V17.12H56.8066V20.352H62.0706V22H54.7586ZM64.3286 22V10.8H68.1526C69.4646 10.8 70.542 11.0347 71.3846 11.504C72.238 11.9627 72.8673 12.6133 73.2726 13.456C73.6886 14.288 73.8966 15.2693 73.8966 16.4C73.8966 17.5307 73.6886 18.5173 73.2726 19.36C72.8673 20.192 72.238 20.8427 71.3846 21.312C70.542 21.7707 69.4646 22 68.1526 22H64.3286ZM66.3766 20.24H68.0566C68.9953 20.24 69.7366 20.0907 70.2806 19.792C70.8246 19.4827 71.214 19.0453 71.4486 18.48C71.6833 17.904 71.8006 17.2107 71.8006 16.4C71.8006 15.6 71.6833 14.912 71.4486 14.336C71.214 13.76 70.8246 13.3173 70.2806 13.008C69.7366 12.6987 68.9953 12.544 68.0566 12.544H66.3766V20.24Z" fill="#151313"/>
<path d="M20.16 22.192C19.0293 22.192 18.0587 21.952 17.248 21.472C16.4373 20.9813 15.8133 20.304 15.376 19.44C14.9387 18.5653 14.72 17.5573 14.72 16.416C14.72 15.2747 14.9387 14.2667 15.376 13.392C15.8133 12.5173 16.4373 11.8347 17.248 11.344C18.0587 10.8533 19.0293 10.608 20.16 10.608C21.504 10.608 22.6027 10.944 23.456 11.616C24.32 12.2773 24.8587 13.2107 25.072 14.416H22.816C22.6773 13.808 22.3787 13.3333 21.92 12.992C21.472 12.64 20.8747 12.464 20.128 12.464C19.0933 12.464 18.2827 12.816 17.696 13.52C17.1093 14.224 16.816 15.1893 16.816 16.416C16.816 17.6427 17.1093 18.608 17.696 19.312C18.2827 20.0053 19.0933 20.352 20.128 20.352C20.8747 20.352 21.472 20.192 21.92 19.872C22.3787 19.5413 22.6773 19.088 22.816 18.512H25.072C24.8587 19.664 24.32 20.5653 23.456 21.216C22.6027 21.8667 21.504 22.192 20.16 22.192ZM32.4529 22.192C31.3329 22.192 30.3515 21.9467 29.5089 21.456C28.6769 20.9653 28.0209 20.288 27.5409 19.424C27.0715 18.5493 26.8369 17.5413 26.8369 16.4C26.8369 15.2587 27.0715 14.256 27.5409 13.392C28.0209 12.5173 28.6769 11.8347 29.5089 11.344C30.3515 10.8533 31.3329 10.608 32.4529 10.608C33.5622 10.608 34.5382 10.8533 35.3809 11.344C36.2235 11.8347 36.8795 12.5173 37.3489 13.392C37.8182 14.256 38.0529 15.2587 38.0529 16.4C38.0529 17.5413 37.8182 18.5493 37.3489 19.424C36.8795 20.288 36.2235 20.9653 35.3809 21.456C34.5382 21.9467 33.5622 22.192 32.4529 22.192ZM32.4529 20.352C33.5195 20.352 34.3675 20 34.9969 19.296C35.6369 18.592 35.9569 17.6267 35.9569 16.4C35.9569 15.1733 35.6369 14.208 34.9969 13.504C34.3675 12.8 33.5195 12.448 32.4529 12.448C31.3862 12.448 30.5329 12.8 29.8929 13.504C29.2529 14.208 28.9329 15.1733 28.9329 16.4C28.9329 17.6267 29.2529 18.592 29.8929 19.296C30.5329 20 31.3862 20.352 32.4529 20.352ZM40.1811 22V10.8H44.3251C45.2211 10.8 45.9625 10.9493 46.5491 11.248C47.1358 11.5467 47.5731 11.9573 47.8611 12.48C48.1491 13.0027 48.2931 13.5893 48.2931 14.24C48.2931 14.8587 48.1545 15.4293 47.8771 15.952C47.5998 16.464 47.1678 16.88 46.5811 17.2C45.9945 17.5093 45.2425 17.664 44.3251 17.664H42.2291V22H40.1811ZM42.2291 16H44.1971C44.9118 16 45.4238 15.8453 45.7331 15.536C46.0531 15.216 46.2131 14.784 46.2131 14.24C46.2131 13.6853 46.0531 13.2533 45.7331 12.944C45.4238 12.624 44.9118 12.464 44.1971 12.464H42.2291V16ZM50.2199 22V10.8H52.2679V22H50.2199ZM54.7586 22V10.8H62.0706V12.448H56.8066V15.52H61.5906V17.12H56.8066V20.352H62.0706V22H54.7586ZM64.3286 22V10.8H68.1526C69.4646 10.8 70.542 11.0347 71.3846 11.504C72.238 11.9627 72.8673 12.6133 73.2726 13.456C73.6886 14.288 73.8966 15.2693 73.8966 16.4C73.8966 17.5307 73.6886 18.5173 73.2726 19.36C72.8673 20.192 72.238 20.8427 71.3846 21.312C70.542 21.7707 69.4646 22 68.1526 22H64.3286ZM66.3766 20.24H68.0566C68.9953 20.24 69.7366 20.0907 70.2806 19.792C70.8246 19.4827 71.214 19.0453 71.4486 18.48C71.6833 17.904 71.8006 17.2107 71.8006 16.4C71.8006 15.6 71.6833 14.912 71.4486 14.336C71.214 13.76 70.8246 13.3173 70.2806 13.008C69.7366 12.6987 68.9953 12.544 68.0566 12.544H66.3766V20.24Z" fill="black" fill-opacity="0.2"/>
<path d="M46.2322 40C45.4624 41.3333 43.5379 41.3333 42.7681 40L39.304 34L49.6963 34L46.2322 40Z" fill="#3A7CF8"/>
</svg>
