<svg width="20" height="21" viewBox="0 0 20 21" fill="none" xmlns="http://www.w3.org/2000/svg">
<g clip-path="url(#clip0_1_132)">
<path d="M10 2.16663C5.40002 2.16663 1.66669 5.89996 1.66669 10.5C1.66669 15.1 5.40002 18.8333 10 18.8333C14.6 18.8333 18.3334 15.1 18.3334 10.5C18.3334 5.89996 14.6 2.16663 10 2.16663ZM10 14.6666C9.54169 14.6666 9.16669 14.2916 9.16669 13.8333V10.5C9.16669 10.0416 9.54169 9.66663 10 9.66663C10.4584 9.66663 10.8334 10.0416 10.8334 10.5V13.8333C10.8334 14.2916 10.4584 14.6666 10 14.6666ZM10.8334 7.99996H9.16669V6.33329H10.8334V7.99996Z" fill="#F6F7F9"/>
</g>
<defs>
<clipPath id="clip0_1_132">
<rect width="20" height="20" fill="white" transform="translate(0 0.5)"/>
</clipPath>
</defs>
</svg>
