<svg width="56" height="56" viewBox="0 0 56 56" fill="none" xmlns="http://www.w3.org/2000/svg">
<path fill-rule="evenodd" clip-rule="evenodd" d="M28 0C43.4641 0 56 12.5359 56 28C56 43.4641 43.4641 56 28 56C12.5359 56 0 43.4641 0 28C0 12.5359 12.5359 0 28 0Z" fill="#FF0000"/>
<path d="M12.5884 15.4314C11.8039 14.6468 11.8039 13.373 12.5884 12.5884C13.373 11.8039 14.6468 11.8039 15.4314 12.5884L43.4116 40.5686C44.1961 41.3532 44.1961 42.627 43.4116 43.4116C42.627 44.1961 41.3532 44.1961 40.5686 43.4116L12.5884 15.4314Z" fill="white"/>
<path d="M40.5686 12.5884C41.3532 11.8039 42.627 11.8039 43.4116 12.5884C44.1961 13.373 44.1961 14.6468 43.4116 15.4314L15.4314 43.4116C14.6468 44.1961 13.373 44.1961 12.5884 43.4116C11.8039 42.627 11.8039 41.3532 12.5884 40.5686L40.5686 12.5884Z" fill="white"/>
</svg>
