<svg width="62" height="62" viewBox="0 0 62 62" fill="none" xmlns="http://www.w3.org/2000/svg">
<path d="M52.5276 53.3889C44.0887 60.2778 17.7387 60.2778 9.47201 53.3889C1.03312 46.5 1.89423 17.05 9.47201 9.29999C17.0498 1.54999 44.9498 1.54999 52.5276 9.29999C60.1053 17.05 60.9665 46.5 52.5276 53.3889Z" fill="#8DC640"/>
<path opacity="0.2" d="M31.1723 41.3333C23.5945 47.3611 15.1556 50.4611 7.23339 50.6333C1.37784 40.6444 2.58339 16.3611 9.47228 9.30001C15.6723 2.92778 35.1334 1.72223 46.3278 5.68334C49.0834 17.05 43.4001 31.5167 31.1723 41.3333Z" fill="white"/>
<path d="M27.0389 46.3278C25.8334 46.3278 24.6278 45.8111 23.9389 44.7778L14.2945 32.3778C12.9167 30.6556 13.2612 28.2445 14.9834 26.8667C16.7056 25.4889 19.1167 25.8333 20.4945 27.5556L27.0389 35.9945L41.5056 17.2222C42.8834 15.5 45.2945 15.1556 47.0167 16.5333C48.7389 17.9111 49.0834 20.3222 47.7056 22.0445L30.1389 44.7778C29.2778 45.6389 28.2445 46.3278 27.0389 46.3278Z" fill="white"/>
</svg>
